HIERARCHY
ROOT Hips
{
	OFFSET 0.000000 0.000000 0.000000
	CHANNELS 6 Xposition Yposition Zposition Xrotation Yrotation Zrotation
	JOINT LeftUpLeg_virtual
	{
		OFFSET 0.000000 0.000000 0.000000
		CHANNELS 3 Xrotation Yrotation Zrotation
		JOINT LeftUpLeg
		{
			OFFSET 15.427100 -6.655098 0.678600
			CHANNELS 3 Xrotation Yrotation Zrotation
			JOINT LeftLeg
			{
				OFFSET 4.081073 -39.591068 13.024000
				CHANNELS 3 Xrotation Yrotation Zrotation
				JOINT LeftFoot
				{
					OFFSET -4.081074 -37.707932 -15.979700
					CHANNELS 3 Xrotation Yrotation Zrotation
					JOINT LeftToeBase
					{
						OFFSET 5.346399 -15.068900 20.645000
						CHANNELS 3 Xrotation Yrotation Zrotation
						JOINT LeftToe_End
						{
							OFFSET 2.754700 0.931300 11.300900
							CHANNELS 3 Xrotation Yrotation Zrotation
							End Site
							{
								OFFSET 0 0 0
							}
						}
					}
				}
			}
		}
	}
	JOINT RightUpLeg_virtual
	{
		OFFSET 0.000000 0.000000 0.000000
		CHANNELS 3 Xrotation Yrotation Zrotation
		JOINT RightUpLeg
		{
			OFFSET -15.569500 -6.655098 0.678600
			CHANNELS 3 Xrotation Yrotation Zrotation
			JOINT RightLeg
			{
				OFFSET -4.081825 -39.591045 13.023800
				CHANNELS 3 Xrotation Yrotation Zrotation
				JOINT RightFoot
				{
					OFFSET 4.081824 -37.707954 -15.979600
					CHANNELS 3 Xrotation Yrotation Zrotation
					JOINT RightToeBase
					{
						OFFSET -5.346400 -15.068900 20.645000
						CHANNELS 3 Xrotation Yrotation Zrotation
						JOINT RightToe_End
						{
							OFFSET -2.754700 0.931300 11.300900
							CHANNELS 3 Xrotation Yrotation Zrotation
							End Site
							{
								OFFSET 0 0 0
							}
						}
					}
				}
			}
		}
	}
	JOINT Spine_virtual
	{
		OFFSET 0.000000 0.000000 0.000000
		CHANNELS 3 Xrotation Yrotation Zrotation
		JOINT Spine
		{
			OFFSET -0.279200 12.230698 -2.892100
			CHANNELS 3 Xrotation Yrotation Zrotation
			JOINT Spine1
			{
				OFFSET -0.232667 10.192268 -1.242267
				CHANNELS 3 Xrotation Yrotation Zrotation
				JOINT Spine1_split
				{
					OFFSET -0.232667 10.192268 -1.242267
					CHANNELS 3 Xrotation Yrotation Zrotation
					JOINT Spine2
					{
						OFFSET -0.232667 10.192268 -1.242267
						CHANNELS 3 Xrotation Yrotation Zrotation
						JOINT Neck_virtual
						{
							OFFSET 0.000000 0.000000 0.000000
							CHANNELS 3 Xrotation Yrotation Zrotation
							JOINT Neck
							{
								OFFSET -0.418800 17.814194 8.416900
								CHANNELS 3 Xrotation Yrotation Zrotation
								JOINT Head
								{
									OFFSET 0.000000 7.031097 3.806800
									CHANNELS 3 Xrotation Yrotation Zrotation
									JOINT HeadTop_End
									{
										OFFSET 0.000000 24.646606 12.978600
										CHANNELS 3 Xrotation Yrotation Zrotation
										End Site
										{
											OFFSET 0 0 0
										}
									}
								}
							}
						}
						JOINT LeftShoulder_virtual
						{
							OFFSET 0.000000 0.000000 0.000000
							CHANNELS 3 Xrotation Yrotation Zrotation
							JOINT LeftShoulder
							{
								OFFSET 8.476499 7.247704 -3.868750
								CHANNELS 3 Xrotation Yrotation Zrotation
								JOINT LeftShoulder_split
								{
									OFFSET 8.476499 7.247704 -3.868750
									CHANNELS 3 Xrotation Yrotation Zrotation
									JOINT LeftArm
									{
										OFFSET 9.308998 -2.777710 0.208600
										CHANNELS 3 Xrotation Yrotation Zrotation
										JOINT LeftForeArm
										{
											OFFSET 29.972298 0.000000 0.000000
											CHANNELS 3 Xrotation Yrotation Zrotation
											JOINT LeftHand
											{
												OFFSET 26.026505 0.000000 0.000000
												CHANNELS 3 Xrotation Yrotation Zrotation
												End Site
												{
													OFFSET 0 0 0
												}
											}
										}
									}
								}
							}
						}
						JOINT RightShoulder_virtual
						{
							OFFSET 0.000000 0.000000 0.000000
							CHANNELS 3 Xrotation Yrotation Zrotation
							JOINT RightShoulder
							{
								OFFSET -7.570500 7.247704 -3.868750
								CHANNELS 3 Xrotation Yrotation Zrotation
								JOINT RightShoulder_split
								{
									OFFSET -7.570500 7.247704 -3.868750
									CHANNELS 3 Xrotation Yrotation Zrotation
									JOINT RightArm
									{
										OFFSET -9.308998 -2.777710 0.208500
										CHANNELS 3 Xrotation Yrotation Zrotation
										JOINT RightForeArm
										{
											OFFSET -29.972300 0.000000 0.000000
											CHANNELS 3 Xrotation Yrotation Zrotation
											JOINT RightHand
											{
												OFFSET -26.026505 0.000000 0.000000
												CHANNELS 3 Xrotation Yrotation Zrotation
												End Site
												{
													OFFSET 0 0 0
												}
											}
										}
									}
								}
							}
						}
					}
				}
			}
		}
	}
}
MOTION
Frames: 8
Frame Time: 0.03333333
11.427718 65.677399 -4.845066 0.000000 0.000000 0.000000 23.470280 -83.743419 25.072166 -35.008281 -15.457225 34.905538 45.115759 -10.279932 9.936738 -11.017100 -2.540668 -30.097597 -0.048865 0.838296 -3.978707 0.000000 0.000000 0.000000 12.229986 -82.749859 15.329899 -12.633687 12.336507 -42.772957 43.625142 15.042078 -8.354143 -20.116654 -3.822282 34.223052 -11.480348 1.874416 1.032582 0.000000 0.000000 0.000000 26.406966 -78.767736 27.085465 1.359990 4.728953 3.013765 0.345332 3.383661 1.210269 1.576281 -1.421229 0.789269 0.000000 0.000000 0.000000 0.877785 2.941673 0.960055 -3.115052 7.729185 -1.140003 2.722020 40.727332 -4.945107 0.000000 0.000000 0.000000 0.896503 3.410657 1.083329 1.544977 11.532675 -10.477948 -3.492175 -2.144182 -2.018874 -10.168704 10.351626 -65.834404 -179.109704 -63.892725 -176.740598 0.000000 0.000000 0.000000 1.888384 3.581902 0.631816 1.253000 8.934072 10.401372 0.411328 3.436457 2.338791 -13.118949 35.184159 47.671415 -179.036661 70.751116 178.924168 0.000000 0.000000 0.000000 
11.396630 64.931496 -4.895855 0.000000 0.000000 0.000000 15.589321 -83.804065 17.262897 -35.125207 -14.676191 33.984982 44.105294 -11.643298 11.303228 -11.821463 -4.576873 -30.166319 -1.445223 1.056774 -3.901071 0.000000 0.000000 0.000000 7.394656 -81.459227 10.382584 -11.716332 10.220746 -42.208394 44.498235 13.431428 -8.548067 -19.935978 -5.230477 33.121107 -11.255210 1.590746 2.210989 0.000000 0.000000 0.000000 23.530120 -78.026428 23.833882 0.979004 4.953757 2.917961 0.266981 3.503675 1.213161 1.553361 -2.296539 0.813749 0.000000 0.000000 0.000000 0.719989 3.089998 0.934626 -2.313513 7.142328 -1.275302 3.117336 39.392863 -4.664378 0.000000 0.000000 0.000000 0.876080 3.453089 1.103339 1.364796 11.399102 -9.294886 -2.899316 -1.730156 -3.150624 -8.399146 7.746956 -66.151010 -179.763940 -63.526196 -177.267806 0.000000 0.000000 0.000000 1.624437 3.674629 0.657832 1.304266 8.353354 9.586692 0.174187 4.295025 2.434746 -11.867166 33.854304 47.480880 -178.303809 69.478658 178.072553 0.000000 0.000000 0.000000 
11.244981 67.774406 -5.077351 0.000000 0.000000 0.000000 7.612913 -81.210273 9.342247 -35.355054 -13.149467 31.800678 38.415313 -14.269084 11.539496 -8.455288 -9.080253 -31.686166 -1.958162 1.027573 -2.968196 0.000000 0.000000 0.000000 5.443454 -78.528618 8.421768 -11.423128 7.672851 -40.597398 43.409165 12.265593 -8.614361 -15.259257 -4.970835 33.039418 -15.409887 0.947307 3.645453 0.000000 0.000000 0.000000 18.072397 -76.108675 18.209986 0.612541 4.955138 2.810901 0.076588 3.514494 1.120356 1.221178 -3.091217 0.859830 0.000000 0.000000 0.000000 0.566046 3.121182 0.842603 -1.492289 6.589784 -1.376221 3.430650 37.391792 -3.931495 0.000000 0.000000 0.000000 0.751770 3.415504 1.037582 1.152613 10.759417 -7.783234 -1.881840 -1.065455 -3.818943 -6.663024 3.788346 -64.565744 179.812175 -62.851291 -177.827213 0.000000 0.000000 0.000000 1.304538 3.627037 0.605394 1.289405 7.781369 8.618660 -0.155951 4.908602 2.383626 -10.091820 31.340494 46.796614 -178.140063 67.124873 177.768787 0.000000 0.000000 0.000000 
11.025148 73.492554 -5.438671 0.000000 0.000000 0.000000 4.642189 -76.579343 6.345603 -35.005543 -10.704083 29.106394 29.581737 -16.546331 10.050824 -1.802351 -14.349022 -32.497255 -1.361222 0.811629 -1.581683 0.000000 0.000000 0.000000 4.644129 -74.400438 7.638068 -11.759725 5.143758 -38.201166 41.146552 11.796329 -8.614665 -8.182128 -3.275124 33.706830 -21.534642 -0.068876 4.872619 0.000000 0.000000 0.000000 12.410163 -73.057104 12.737668 0.390640 4.731912 2.721250 -0.135320 3.427256 0.966554 0.735687 -3.150127 0.941900 0.000000 0.000000 0.000000 0.410285 3.043194 0.721672 -0.854221 6.099037 -1.494906 3.542622 34.910985 -2.923562 0.000000 0.000000 0.000000 0.549475 3.321368 0.926378 0.989004 9.659872 -6.375765 -0.752108 -0.340278 -4.047423 -5.160537 -0.811735 -61.648741 179.764609 -62.122346 -178.167807 0.000000 0.000000 0.000000 1.022931 3.477543 0.491328 1.194764 7.309950 7.601744 -0.643272 5.081628 2.136637 -8.005413 27.970123 45.487158 -178.408011 64.736874 177.876349 0.000000 0.000000 0.000000 
10.659250 80.694687 -5.917362 0.000000 0.000000 0.000000 4.305238 -71.252800 5.859176 -33.661693 -7.129455 26.434816 20.684912 -16.332540 7.601207 5.312719 -17.233276 -30.171292 0.032226 0.536814 -0.503636 0.000000 0.000000 0.000000 4.070043 -69.423115 7.125955 -12.471196 2.465865 -34.912362 38.899857 10.977280 -8.475449 -2.608426 -1.713225 32.976560 -24.823462 -1.121976 5.625118 0.000000 0.000000 0.000000 7.926318 -69.243153 8.762620 0.357090 4.328743 2.679157 -0.245747 3.264968 0.789844 0.300556 -2.514831 0.946780 0.000000 0.000000 0.000000 0.257762 2.868547 0.601129 -0.575508 5.642614 -1.664267 3.402144 32.272285 -1.876259 0.000000 0.000000 0.000000 0.385856 3.171155 0.796892 0.953543 8.218439 -5.561444 -0.014096 0.152534 -3.885607 -3.949319 -5.376211 -58.220362 -179.942672 -61.592863 -178.313618 0.000000 0.000000 0.000000 0.867196 3.285406 0.367689 1.052872 7.063023 6.671768 -0.979692 4.975576 1.554402 -6.048722 24.164813 43.883508 -178.878829 63.165289 178.212312 0.000000 0.000000 0.000000 
10.204234 87.730537 -6.430138 0.000000 0.000000 0.000000 4.518833 -66.471367 5.951978 -30.880416 -2.553749 23.862410 14.149836 -13.348612 5.742275 9.742866 -15.771395 -24.706147 0.896415 0.285486 0.009147 0.000000 0.000000 0.000000 3.093662 -64.363741 6.399062 -13.883669 0.089244 -31.086636 37.410893 9.200075 -8.185142 -0.947792 -1.517948 29.486835 -21.359783 -1.618215 5.852630 0.000000 0.000000 0.000000 4.836384 -64.988014 6.387246 0.583929 3.787652 2.588158 -0.174410 3.035264 0.608750 0.507602 -1.718372 0.889018 0.000000 0.000000 0.000000 0.137092 2.591734 0.503900 -0.787953 5.275497 -1.932285 2.943701 29.616257 -0.922556 0.000000 0.000000 0.000000 0.331794 2.932570 0.668175 1.034658 6.601188 -5.493499 0.115195 0.326090 -3.482953 -3.281429 -9.233192 -55.221984 -179.541877 -61.727541 -178.416357 0.000000 0.000000 0.000000 0.873453 3.052306 0.246417 0.880561 7.039800 5.942913 -1.135735 4.711771 0.771859 -4.627324 20.409582 42.317366 -179.382761 62.957965 178.657490 0.000000 0.000000 0.000000 
9.704358 93.309662 -6.823761 0.000000 0.000000 0.000000 4.707449 -62.836415 6.334633 -26.727814 2.131510 21.770101 11.292073 -9.478550 4.800079 9.542231 -11.206706 -19.219565 0.090205 0.099853 0.274127 0.000000 0.000000 0.000000 1.956869 -59.331886 5.720236 -16.381939 -1.348025 -27.711969 36.849745 6.734957 -7.516377 -2.713151 -1.850039 24.191236 -12.536586 -1.367718 5.573109 0.000000 0.000000 0.000000 3.103381 -60.445084 5.450999 0.924240 3.151857 2.342524 0.124570 2.713746 0.428868 1.109968 -0.873792 0.777863 0.000000 0.000000 0.000000 0.111811 2.229529 0.443432 -1.355942 4.904546 -2.248033 2.231750 27.085523 -0.187592 0.000000 0.000000 0.000000 0.417201 2.585997 0.535253 1.168429 4.970925 -6.126309 -0.499446 0.274560 -2.870331 -3.386546 -11.940059 -53.201788 -179.201296 -62.628463 -178.597262 0.000000 0.000000 0.000000 0.997796 2.768641 0.131884 0.756944 7.139622 5.541326 -1.007267 4.395559 -0.185962 -3.959577 17.077276 41.262440 -179.835985 64.297639 179.159373 0.000000 0.000000 0.000000 
9.129018 96.927124 -7.124729 0.000000 0.000000 0.000000 4.498268 -60.164705 6.701968 -22.446259 6.003911 20.259989 12.549582 -6.203069 4.264522 6.063585 -5.933201 -15.241045 -2.064567 -0.013008 0.121514 0.000000 0.000000 0.000000 0.965314 -55.024004 5.342829 -20.168092 -1.291209 -25.424838 36.150139 4.397486 -6.709945 -4.474750 -1.294759 19.506604 -3.485670 -0.695550 4.538369 0.000000 0.000000 0.000000 2.604673 -55.745572 5.464396 1.221315 2.433231 1.886008 0.522635 2.305218 0.246450 1.657720 -0.546383 0.507144 0.000000 0.000000 0.000000 0.209152 1.795685 0.372034 -2.146886 4.554265 -2.523884 1.384087 24.673502 0.366608 0.000000 0.000000 0.000000 0.631348 2.134931 0.369919 1.282661 3.490651 -7.103068 -1.629146 0.125996 -2.094646 -4.394626 -13.539220 -52.337609 -179.094267 -63.941642 -178.996104 0.000000 0.000000 0.000000 1.185236 2.412452 -0.000055 0.680129 7.300069 5.503864 -0.617579 4.128609 -1.057847 -4.112053 14.338674 41.026184 179.747998 66.784633 179.747247 0.000000 0.000000 0.000000 
